<svg xmlns="http://www.w3.org/2000/svg" xmlns:xlink="http://www.w3.org/1999/xlink" width="300" zoomAndPan="magnify" viewBox="0 0 224.87999 225" height="300" preserveAspectRatio="xMidYMid meet" version="1.0"><defs><clipPath id="b22a3ecaa9"><path d="M 35.503906 32.511719 L 189.171875 32.511719 L 189.171875 192 L 35.503906 192 Z M 35.503906 32.511719 " clip-rule="nonzero"/></clipPath></defs><g clip-path="url(#b22a3ecaa9)"><path fill="#000000" d="M 45.414062 46.773438 C 48.925781 41.769531 54.078125 38.96875 59.066406 36.164062 C 62.660156 34.140625 66.722656 33.132812 71.046875 32.929688 C 77.851562 32.613281 83.851562 34.570312 89.128906 38.5 C 92.335938 40.890625 95.171875 43.898438 97.746094 46.984375 C 100.039062 49.730469 101.875 52.886719 103.675781 56 C 106.40625 60.730469 108.378906 65.792969 109.683594 71.109375 C 110.960938 76.324219 112.042969 81.5625 112.210938 86.953125 C 112.214844 87.1875 112.402344 87.414062 112.507812 87.648438 C 112.761719 87.378906 113.203125 87.136719 113.25 86.835938 C 113.871094 82.65625 115.554688 78.835938 117.128906 74.964844 C 118.769531 70.933594 120.851562 67.160156 123.652344 63.847656 C 126.199219 60.839844 128.859375 57.90625 131.660156 55.132812 C 135.566406 51.261719 139.464844 47.34375 143.714844 43.867188 C 148.058594 40.316406 153.066406 37.792969 158.65625 36.617188 C 167.253906 34.8125 175.304688 35.59375 181.8125 42.136719 C 185.59375 45.9375 187.714844 50.746094 188.394531 56.085938 C 188.777344 59.082031 189.191406 62.121094 189.074219 65.121094 C 188.875 70.226562 187.832031 75.222656 186.429688 80.164062 C 184.347656 87.511719 181.109375 94.359375 177.914062 101.25 C 175.265625 106.96875 173.019531 112.875 170.40625 118.617188 C 168.800781 122.148438 166.875 125.539062 165.042969 128.96875 C 163.28125 132.253906 161.546875 135.558594 159.636719 138.761719 C 155.566406 145.589844 151.40625 152.363281 147.253906 159.144531 C 141.933594 167.839844 136.648438 176.558594 131.203125 185.175781 C 129.914062 187.214844 128.195312 189.054688 126.394531 190.679688 C 124.855469 192.074219 123.085938 191.4375 121.734375 189.757812 C 120.582031 188.332031 119.164062 187.113281 117.84375 185.820312 C 112.691406 180.777344 107.347656 175.910156 102.425781 170.648438 C 98.898438 166.882812 95.847656 162.65625 92.734375 158.519531 C 90.089844 155.007812 86.71875 152.304688 83.363281 149.570312 C 80.460938 147.210938 77.527344 144.886719 74.578125 142.585938 C 68.128906 137.550781 62.019531 132.136719 56.402344 126.1875 C 52.109375 121.644531 48.519531 116.578125 45.292969 111.21875 C 41.5 104.917969 39.003906 98.109375 37.140625 91.070312 C 36.398438 88.269531 36.285156 85.289062 35.992188 82.382812 C 35.777344 80.226562 35.503906 78.035156 35.65625 75.890625 C 36.132812 69.226562 37.230469 62.675781 40.253906 56.613281 C 41.890625 53.335938 43.628906 50.113281 45.414062 46.773438 M 146.535156 52.433594 C 143.300781 53.761719 140.171875 55.253906 137.964844 58.125 C 134.785156 62.253906 131.289062 66.1875 128.515625 70.574219 C 125.160156 75.875 122.3125 81.507812 119.445312 87.101562 C 116.835938 92.183594 116.339844 97.863281 115.46875 103.402344 C 115.027344 106.207031 115.003906 109.070312 114.699219 111.898438 C 114.410156 114.554688 112.070312 115.933594 110.464844 114.347656 C 109.824219 113.714844 109.929688 112.335938 109.675781 111.300781 C 109.589844 110.953125 109.449219 110.621094 109.332031 110.285156 C 109.089844 110.566406 108.761719 110.808594 108.617188 111.132812 C 107.984375 112.546875 107.464844 114.015625 106.785156 115.402344 C 106.238281 116.507812 104.152344 117.292969 103.335938 116.636719 C 102.34375 115.835938 101.273438 115.019531 102.089844 113.308594 C 103.421875 110.515625 104.539062 107.617188 105.683594 104.738281 C 106.210938 103.410156 106.738281 102.171875 105.976562 100.574219 C 103.996094 96.433594 102.242188 92.183594 100.46875 87.949219 C 97.570312 81.03125 93.707031 74.679688 89.132812 68.761719 C 86.792969 65.738281 84.253906 62.867188 81.777344 59.945312 C 77.007812 54.316406 71.703125 49.34375 64.730469 46.523438 C 62.019531 45.425781 59.207031 44.636719 56.242188 45.605469 C 53.527344 46.496094 52.046875 48.828125 50.410156 50.871094 C 49.289062 52.269531 48.441406 54.007812 47.894531 55.726562 C 47.015625 58.480469 46.476562 61.3125 47.082031 64.28125 C 47.527344 66.472656 47.382812 68.796875 47.917969 70.957031 C 49.425781 77.058594 51.6875 82.914062 54.628906 88.464844 C 57.652344 94.171875 60.765625 99.835938 64.050781 105.394531 C 67.636719 111.476562 71.367188 117.484375 75.210938 123.40625 C 79.546875 130.078125 84.042969 136.648438 88.546875 143.210938 C 90.292969 145.753906 92.015625 148.386719 94.183594 150.542969 C 96.484375 152.824219 99.242188 154.667969 101.902344 156.558594 C 106.46875 159.796875 111.050781 163.03125 115.757812 166.066406 C 119.316406 168.359375 123.085938 170.328125 126.757812 172.453125 C 127.8125 173.0625 128.609375 173.144531 129.246094 171.800781 C 129.867188 170.492188 130.757812 169.316406 131.5 168.0625 C 134.421875 163.105469 137.328125 158.140625 140.242188 153.183594 C 142.789062 148.847656 145.296875 144.488281 147.90625 140.195312 C 150.816406 135.402344 153.875 130.699219 156.773438 125.898438 C 160.472656 119.777344 163.878906 113.472656 167.761719 107.472656 C 173.292969 98.921875 175.3125 89.390625 176.132812 79.515625 C 176.410156 76.1875 176.082031 72.785156 175.800781 69.433594 C 175.503906 65.835938 174.601562 62.398438 172.621094 59.265625 C 168.820312 53.261719 163.394531 49.929688 156.351562 50.042969 C 153.128906 50.09375 149.925781 51.476562 146.535156 52.433594 M 106.625 84.054688 C 105.820312 80.019531 105.367188 75.871094 104.125 71.976562 C 102.703125 67.515625 100.851562 63.140625 98.703125 58.980469 C 95.085938 51.972656 90.296875 45.875 83.359375 41.753906 C 78.054688 38.601562 72.433594 37.75 66.46875 39.402344 C 65.863281 39.570312 65.3125 39.929688 64.738281 40.195312 C 65.316406 40.441406 65.894531 40.6875 66.46875 40.933594 C 66.625 41 66.769531 41.085938 66.925781 41.140625 C 72.0625 42.933594 76.339844 46.144531 80.175781 49.824219 C 83.894531 53.394531 87.21875 57.382812 90.632812 61.265625 C 95.730469 67.0625 99.609375 73.683594 103.179688 80.476562 C 104.414062 82.820312 105.3125 85.335938 106.402344 87.757812 C 106.523438 88.023438 106.914062 88.164062 107.179688 88.363281 C 107.265625 88.035156 107.464844 87.691406 107.417969 87.382812 C 107.257812 86.328125 107.015625 85.28125 106.625 84.054688 M 42.265625 71.835938 C 41.964844 72.597656 41.414062 73.363281 41.414062 74.125 C 41.410156 76.589844 41.589844 79.054688 41.734375 81.515625 C 41.816406 82.960938 41.789062 84.449219 42.121094 85.84375 C 43.1875 90.332031 44.238281 94.796875 45.960938 99.144531 C 49.339844 107.679688 54.265625 115.15625 60.398438 121.867188 C 63.4375 125.191406 66.835938 128.191406 70.128906 131.277344 C 71.957031 132.992188 73.886719 134.601562 75.796875 136.226562 C 76.097656 136.480469 76.535156 136.578125 76.910156 136.746094 C 76.773438 136.339844 76.730469 135.863281 76.492188 135.53125 C 74.996094 133.449219 73.328125 131.480469 71.953125 129.324219 C 68.914062 124.558594 65.964844 119.734375 63.066406 114.882812 C 59.085938 108.222656 54.957031 101.636719 51.3125 94.796875 C 47.449219 87.546875 43.609375 80.207031 42.265625 71.835938 M 157.320312 44.527344 C 159.765625 44.0625 162.078125 44.691406 164.355469 45.460938 C 170.875 47.660156 175.515625 52.109375 178.667969 58.054688 C 180.910156 62.28125 181.914062 66.894531 181.609375 71.730469 C 181.582031 72.117188 181.828125 72.519531 181.945312 72.914062 C 182.1875 72.511719 182.617188 72.117188 182.636719 71.703125 C 182.808594 68.109375 183.0625 64.503906 182.96875 60.914062 C 182.910156 58.601562 182.5 56.257812 181.914062 54.011719 C 179.804688 45.917969 173.398438 41.339844 165.097656 41.710938 C 162.347656 41.832031 159.621094 42.574219 156.898438 43.113281 C 156.121094 43.269531 155.402344 43.710938 154.65625 44.023438 C 155.425781 44.191406 156.191406 44.359375 157.320312 44.527344 M 111.296875 169.929688 C 110.964844 169.71875 110.65625 169.457031 110.296875 169.308594 C 109.816406 169.105469 109.300781 168.988281 108.800781 168.835938 C 109.050781 169.214844 109.234375 169.664062 109.554688 169.96875 C 113.296875 173.496094 117.042969 177.019531 120.839844 180.488281 C 121.164062 180.78125 122.015625 180.878906 122.382812 180.660156 C 123.078125 180.246094 123.714844 179.609375 124.148438 178.925781 C 124.34375 178.621094 124.152344 177.699219 123.855469 177.519531 C 119.757812 175.003906 115.613281 172.566406 111.296875 169.929688 Z M 111.296875 169.929688 " fill-opacity="1" fill-rule="nonzero"/></g></svg>