<svg xmlns="http://www.w3.org/2000/svg" xmlns:xlink="http://www.w3.org/1999/xlink" width="300" zoomAndPan="magnify" viewBox="0 0 224.87999 225" height="300" preserveAspectRatio="xMidYMid meet" version="1.0"><defs><clipPath id="79907f356d"><path d="M 35.703125 32.511719 L 189.171875 32.511719 L 189.171875 192 L 35.703125 192 Z M 35.703125 32.511719 " clip-rule="nonzero"/></clipPath></defs><g clip-path="url(#79907f356d)"><path fill="#000000" d="M 179.464844 46.773438 C 175.953125 41.769531 170.800781 38.96875 165.808594 36.164062 C 162.214844 34.140625 158.15625 33.132812 153.828125 32.929688 C 147.027344 32.613281 141.023438 34.570312 135.75 38.5 C 132.542969 40.890625 129.707031 43.898438 127.132812 46.984375 C 124.839844 49.730469 123.003906 52.886719 121.203125 56 C 118.46875 60.730469 116.5 65.792969 115.195312 71.109375 C 113.914062 76.324219 112.835938 81.5625 112.667969 86.953125 C 112.660156 87.1875 112.472656 87.414062 112.371094 87.644531 C 112.113281 87.378906 111.675781 87.136719 111.628906 86.835938 C 111.003906 82.65625 109.320312 78.835938 107.75 74.964844 C 106.109375 70.933594 104.027344 67.160156 101.222656 63.847656 C 98.679688 60.839844 96.019531 57.90625 93.21875 55.132812 C 89.308594 51.261719 85.414062 47.34375 81.164062 43.867188 C 76.816406 40.316406 71.8125 37.792969 66.21875 36.617188 C 57.621094 34.8125 49.570312 35.59375 43.0625 42.136719 C 39.285156 45.9375 37.164062 50.746094 36.484375 56.085938 C 36.101562 59.082031 35.6875 62.121094 35.804688 65.121094 C 36 70.226562 37.046875 75.222656 38.445312 80.164062 C 40.53125 87.511719 43.769531 94.359375 46.960938 101.25 C 49.613281 106.96875 51.859375 112.875 54.46875 118.617188 C 56.078125 122.148438 58 125.539062 59.835938 128.96875 C 61.59375 132.253906 63.332031 135.558594 65.238281 138.761719 C 69.308594 145.589844 73.472656 152.363281 77.621094 159.144531 C 82.945312 167.839844 88.230469 176.558594 93.675781 185.175781 C 94.964844 187.214844 96.683594 189.054688 98.480469 190.679688 C 100.023438 192.074219 101.789062 191.4375 103.144531 189.757812 C 104.296875 188.332031 105.710938 187.113281 107.03125 185.820312 C 112.1875 180.777344 117.527344 175.910156 122.453125 170.648438 C 125.980469 166.882812 129.03125 162.65625 132.144531 158.519531 C 134.789062 155.007812 138.15625 152.304688 141.515625 149.570312 C 144.414062 147.210938 147.347656 144.886719 150.296875 142.585938 C 156.75 137.550781 162.855469 132.136719 168.476562 126.1875 C 172.765625 121.644531 176.355469 116.578125 179.585938 111.21875 C 183.378906 104.917969 185.871094 98.109375 187.738281 91.070312 C 188.480469 88.269531 188.59375 85.289062 188.882812 82.382812 C 189.101562 80.226562 189.371094 78.035156 189.21875 75.890625 C 188.746094 69.226562 187.648438 62.675781 184.621094 56.613281 C 182.988281 53.335938 181.246094 50.113281 179.464844 46.773438 M 78.34375 52.433594 C 81.578125 53.761719 84.707031 55.253906 86.914062 58.125 C 90.09375 62.253906 93.585938 66.1875 96.363281 70.574219 C 99.714844 75.875 102.566406 81.507812 105.433594 87.101562 C 108.042969 92.183594 108.539062 97.863281 109.410156 103.402344 C 109.851562 106.207031 109.871094 109.070312 110.179688 111.898438 C 110.464844 114.554688 112.804688 115.933594 114.414062 114.347656 C 115.054688 113.714844 114.949219 112.335938 115.203125 111.300781 C 115.285156 110.953125 115.429688 110.621094 115.546875 110.285156 C 115.789062 110.566406 116.117188 110.808594 116.261719 111.132812 C 116.894531 112.546875 117.410156 114.015625 118.09375 115.402344 C 118.636719 116.507812 120.726562 117.292969 121.542969 116.636719 C 122.535156 115.835938 123.601562 115.019531 122.785156 113.308594 C 121.453125 110.515625 120.339844 107.617188 119.195312 104.738281 C 118.667969 103.410156 118.136719 102.171875 118.902344 100.574219 C 120.878906 96.433594 122.636719 92.183594 124.410156 87.949219 C 127.308594 81.03125 131.171875 74.679688 135.746094 68.761719 C 138.085938 65.738281 140.625 62.867188 143.097656 59.945312 C 147.867188 54.316406 153.175781 49.34375 160.148438 46.523438 C 162.859375 45.425781 165.667969 44.636719 168.632812 45.605469 C 171.351562 46.496094 172.832031 48.828125 174.46875 50.867188 C 175.589844 52.269531 176.4375 54.007812 176.984375 55.726562 C 177.863281 58.480469 178.398438 61.3125 177.796875 64.28125 C 177.351562 66.472656 177.496094 68.796875 176.960938 70.957031 C 175.449219 77.058594 173.191406 82.914062 170.25 88.464844 C 167.226562 94.171875 164.109375 99.835938 160.828125 105.394531 C 157.238281 111.476562 153.511719 117.484375 149.664062 123.40625 C 145.332031 130.078125 140.835938 136.648438 136.328125 143.210938 C 134.585938 145.753906 132.859375 148.386719 130.691406 150.542969 C 128.394531 152.824219 125.636719 154.667969 122.976562 156.558594 C 118.40625 159.796875 113.828125 163.03125 109.121094 166.066406 C 105.558594 168.359375 101.789062 170.328125 98.117188 172.453125 C 97.0625 173.058594 96.269531 173.144531 95.632812 171.800781 C 95.011719 170.492188 94.117188 169.316406 93.378906 168.0625 C 90.457031 163.105469 87.550781 158.140625 84.636719 153.183594 C 82.085938 148.847656 79.582031 144.488281 76.972656 140.195312 C 74.0625 135.402344 71 130.699219 68.105469 125.898438 C 64.40625 119.777344 61 113.472656 57.117188 107.472656 C 51.585938 98.921875 49.566406 89.390625 48.746094 79.515625 C 48.46875 76.1875 48.796875 72.785156 49.074219 69.433594 C 49.375 65.835938 50.277344 62.398438 52.257812 59.265625 C 56.054688 53.261719 61.484375 49.929688 68.527344 50.042969 C 71.75 50.09375 74.953125 51.476562 78.34375 52.433594 M 118.253906 84.054688 C 119.054688 80.015625 119.507812 75.871094 120.75 71.976562 C 122.175781 67.515625 124.027344 63.140625 126.175781 58.980469 C 129.792969 51.972656 134.582031 45.875 141.519531 41.753906 C 146.824219 38.601562 152.445312 37.75 158.410156 39.402344 C 159.011719 39.570312 159.5625 39.929688 160.140625 40.195312 C 159.5625 40.441406 158.984375 40.6875 158.40625 40.933594 C 158.253906 41 158.109375 41.085938 157.953125 41.140625 C 152.8125 42.933594 148.535156 46.144531 144.703125 49.824219 C 140.980469 53.394531 137.65625 57.382812 134.246094 61.265625 C 129.148438 67.0625 125.269531 73.683594 121.695312 80.476562 C 120.464844 82.820312 119.566406 85.335938 118.476562 87.757812 C 118.355469 88.023438 117.960938 88.164062 117.695312 88.363281 C 117.609375 88.035156 117.414062 87.691406 117.460938 87.382812 C 117.617188 86.328125 117.863281 85.28125 118.253906 84.054688 M 182.609375 71.835938 C 182.910156 72.597656 183.460938 73.363281 183.464844 74.125 C 183.46875 76.589844 183.289062 79.054688 183.144531 81.515625 C 183.058594 82.960938 183.089844 84.449219 182.757812 85.84375 C 181.6875 90.332031 180.636719 94.796875 178.917969 99.144531 C 175.539062 107.679688 170.613281 115.15625 164.480469 121.867188 C 161.441406 125.191406 158.039062 128.191406 154.75 131.277344 C 152.921875 132.992188 150.988281 134.601562 149.078125 136.226562 C 148.777344 136.480469 148.34375 136.578125 147.96875 136.746094 C 148.101562 136.339844 148.144531 135.863281 148.382812 135.53125 C 149.882812 133.449219 151.546875 131.480469 152.921875 129.324219 C 155.964844 124.558594 158.914062 119.734375 161.8125 114.882812 C 165.792969 108.222656 169.921875 101.636719 173.566406 94.796875 C 177.429688 87.546875 181.269531 80.207031 182.609375 71.835938 M 67.558594 44.527344 C 65.109375 44.0625 62.796875 44.691406 60.523438 45.460938 C 54 47.660156 49.363281 52.109375 46.207031 58.054688 C 43.964844 62.28125 42.960938 66.894531 43.269531 71.730469 C 43.292969 72.117188 43.050781 72.519531 42.933594 72.914062 C 42.691406 72.511719 42.261719 72.117188 42.238281 71.703125 C 42.070312 68.109375 41.8125 64.503906 41.90625 60.914062 C 41.964844 58.601562 42.378906 56.257812 42.964844 54.011719 C 45.074219 45.917969 51.476562 41.339844 59.78125 41.710938 C 62.527344 41.832031 65.257812 42.574219 67.976562 43.113281 C 68.753906 43.269531 69.472656 43.710938 70.222656 44.023438 C 69.453125 44.191406 68.683594 44.359375 67.558594 44.527344 M 113.578125 169.929688 C 113.910156 169.71875 114.222656 169.457031 114.578125 169.308594 C 115.058594 169.105469 115.574219 168.988281 116.078125 168.835938 C 115.828125 169.214844 115.644531 169.664062 115.320312 169.96875 C 111.582031 173.496094 107.835938 177.019531 104.035156 180.488281 C 103.714844 180.78125 102.863281 180.878906 102.496094 180.660156 C 101.796875 180.246094 101.164062 179.609375 100.726562 178.925781 C 100.535156 178.621094 100.726562 177.699219 101.023438 177.519531 C 105.121094 175.003906 109.265625 172.566406 113.578125 169.929688 Z M 113.578125 169.929688 " fill-opacity="1" fill-rule="nonzero"/></g></svg>